<?xml version="1.0" standalone="no"?>
<!DOCTYPE svg PUBLIC "-//W3C//DTD SVG 20010904//EN"
 "http://www.w3.org/TR/2001/REC-SVG-20010904/DTD/svg10.dtd">
<svg version="1.0" xmlns="http://www.w3.org/2000/svg"
 width="500.000000pt" height="500.000000pt" viewBox="0 0 500.000000 500.000000"
 preserveAspectRatio="xMidYMid meet">
<metadata>
Created by potrace 1.14, written by Peter Selinger 2001-2017
</metadata>
<g transform="translate(0.000000,500.000000) scale(0.100000,-0.100000)"
fill="#000000" stroke="none">
<path d="M55 4973 c3 -27 23 -53 39 -52 6 0 6 3 -2 6 -10 4 -10 8 -1 19 8 10
8 14 0 14 -6 0 -11 -6 -11 -12 0 -9 -4 -8 -10 2 -12 19 -13 33 -1 26 5 -3 14
0 20 8 10 11 7 14 -12 12 -19 -1 -24 -6 -22 -23z"/>
<path d="M120 4990 c0 -5 -3 -17 -6 -27 -3 -12 -1 -10 8 5 8 12 17 20 20 17 3
-4 8 -2 11 2 3 5 -3 10 -14 10 -10 1 -19 -2 -19 -7z"/>
<path d="M7 4966 c-6 -16 11 -36 30 -36 7 0 13 -5 13 -12 0 -6 2 -9 5 -6 11
10 -7 37 -21 31 -9 -3 -14 1 -14 12 0 10 5 13 12 9 7 -4 8 -3 4 4 -10 16 -23
15 -29 -2z"/>
<path d="M115 4931 c-3 -5 -2 -12 3 -15 5 -3 9 1 9 9 0 17 -3 19 -12 6z"/>
<path d="M146 4927 c3 -10 9 -15 12 -12 3 3 0 11 -7 18 -10 9 -11 8 -5 -6z"/>
<path d="M10 4916 c0 -2 7 -6 15 -10 8 -3 15 -1 15 4 0 6 -7 10 -15 10 -8 0
-15 -2 -15 -4z"/>
<path d="M29 4873 c-12 -16 -12 -17 2 -6 9 7 20 9 24 5 5 -4 5 -1 1 6 -9 16
-11 15 -27 -5z"/>
<path d="M2561 4168 c-10 -24 -44 -109 -75 -190 -55 -142 -73 -168 -93 -135
-4 6 -32 82 -63 167 -44 125 -59 156 -75 158 -64 9 -268 -168 -367 -319 -99
-152 -103 -161 -103 -274 0 -79 5 -116 25 -175 52 -160 187 -392 347 -597 96
-123 194 -235 201 -229 10 10 -203 441 -230 468 -40 38 -37 73 10 97 19 10 26
8 47 -13 14 -14 25 -34 25 -46 0 -17 211 -474 215 -467 1 1 0 114 -3 250 -4
248 -5 248 -27 257 -44 17 -41 76 6 100 16 9 26 8 46 -5 22 -15 25 -22 19 -59
-3 -22 -1 -108 4 -191 6 -82 13 -208 16 -279 l6 -129 83 269 c51 165 82 284
81 308 -1 31 4 42 26 59 25 19 28 19 52 3 29 -19 33 -46 11 -79 -16 -25 -187
-569 -180 -575 11 -11 113 92 157 158 71 108 229 434 284 585 40 110 47 144
52 225 8 156 -38 283 -155 430 -61 76 -211 208 -282 248 l-41 24 -19 -44z"/>
<path d="M3479 3420 c-108 -18 -254 -116 -404 -272 -89 -92 -108 -118 -173
-242 -40 -76 -71 -140 -69 -142 8 -9 178 139 192 167 20 38 47 52 78 40 52
-20 42 -80 -16 -105 -34 -15 -324 -253 -367 -301 -22 -25 -23 -27 -5 -21 11 5
114 40 230 78 126 42 221 80 238 94 34 29 58 30 80 6 36 -39 7 -92 -49 -92
-16 0 -142 -38 -279 -84 l-250 -83 80 -6 c113 -9 437 -22 455 -18 58 11 82 12
95 1 18 -15 20 -61 3 -78 -15 -15 -60 -16 -74 -2 -6 6 -110 15 -240 20 -270
11 -299 12 -292 5 3 -3 82 -26 174 -50 93 -24 252 -74 354 -111 184 -67 186
-67 309 -72 78 -3 145 0 180 8 228 49 406 246 525 578 l26 73 -23 8 c-12 5
-100 14 -195 21 -101 8 -180 19 -190 26 -16 11 -16 13 0 31 10 10 74 59 142
108 69 50 128 96 131 103 7 18 -68 97 -135 142 -81 55 -163 94 -270 128 -84
27 -116 34 -195 46 -11 2 -41 0 -66 -4z"/>
<path d="M1290 3315 c-92 -19 -170 -48 -266 -99 -104 -55 -214 -133 -214 -152
0 -7 57 -62 127 -121 171 -145 178 -152 164 -166 -8 -8 -73 -14 -189 -17
l-177 -5 2 -60 c3 -119 83 -288 210 -444 84 -104 141 -144 232 -165 209 -48
598 22 986 176 157 62 155 66 -30 43 -65 -8 -162 -15 -213 -15 -88 0 -96 -2
-118 -25 -13 -14 -34 -25 -47 -25 -44 0 -74 59 -45 88 7 7 39 12 73 12 33 0
117 7 185 16 69 9 179 19 245 23 66 4 113 10 105 13 -53 22 -493 121 -528 120
-59 -2 -82 12 -82 48 0 20 8 35 25 46 23 15 27 15 51 -1 27 -17 507 -139 526
-133 17 6 -412 318 -436 318 -31 0 -46 19 -46 57 0 58 59 68 99 17 20 -26 240
-193 253 -194 4 0 -25 42 -65 93 -39 51 -108 145 -151 210 -83 123 -125 170
-216 238 -142 106 -287 139 -460 104z"/>
<path d="M2630 2275 c0 -6 39 -122 87 -260 59 -171 94 -257 110 -272 12 -12
23 -31 23 -43 0 -23 -33 -60 -55 -60 -25 0 -55 38 -55 69 0 27 -173 538 -187
550 -3 3 -2 -28 2 -69 4 -41 10 -223 14 -405 l8 -330 31 -103 c48 -159 82
-224 161 -303 106 -106 264 -174 461 -199 101 -12 230 -13 248 -1 11 7 5 43
-32 186 -48 185 -52 210 -36 220 13 8 33 -4 171 -101 66 -46 128 -84 139 -84
22 0 68 88 95 181 23 82 33 230 24 358 -12 161 -45 226 -163 320 -86 69 -198
134 -318 187 -113 50 -397 149 -404 141 -12 -12 196 -117 231 -117 26 0 75
-39 75 -60 0 -52 -65 -67 -109 -26 -30 27 -403 228 -410 220 -9 -9 304 -315
336 -329 42 -18 57 -46 42 -79 -22 -47 -74 -42 -101 8 -16 29 -388 413 -388
401z"/>
<path d="M2165 2115 c-125 -81 -215 -145 -222 -160 -23 -43 -95 -46 -108 -4
-11 34 4 54 63 82 64 30 246 147 239 153 -2 3 -34 -6 -70 -20 -36 -13 -145
-47 -244 -76 -141 -40 -194 -61 -256 -98 -262 -157 -348 -317 -334 -616 7
-154 63 -386 93 -386 3 0 76 43 162 96 86 54 164 99 174 102 34 9 31 -30 -15
-171 -64 -200 -61 -184 -38 -196 38 -21 155 -31 242 -21 157 18 343 79 429
141 126 91 206 349 229 735 10 159 5 414 -8 414 -4 0 -28 -84 -54 -187 -34
-134 -46 -197 -41 -221 8 -40 -16 -72 -56 -72 -49 0 -64 38 -35 88 15 26 138
493 131 499 -1 2 -19 -21 -38 -49 -20 -29 -82 -119 -137 -200 -56 -81 -101
-154 -101 -162 0 -8 -5 -27 -12 -41 -21 -46 -93 -45 -104 1 -5 20 1 33 29 62
19 20 93 123 164 227 149 219 147 215 136 215 -4 0 -102 -61 -218 -135z"/>
</g>
</svg>
